Coordinates
version=1
nRows=9
nColumns=36
inDegrees=yes

Units are S.I. units (second, meters, Newtons, ...)
If the header above contains a line with 'inDegrees', this indicates whether rotational values are in degrees (yes) or radians (no).

endheader
time	pelvis_tilt	pelvis_list	pelvis_rotation	pelvis_tx	pelvis_ty	pelvis_tz	hip_flexion_r	hip_adduction_r	hip_rotation_r	knee_angle_r	knee_angle_r_beta	ankle_angle_r	subtalar_angle_r	mtp_angle_r	hip_flexion_l	hip_adduction_l	hip_rotation_l	knee_angle_l	knee_angle_l_beta	ankle_angle_l	subtalar_angle_l	mtp_angle_l	lumbar_extension	lumbar_bending	lumbar_rotation	arm_flex_r	arm_add_r	arm_rot_r	elbow_flex_r	pro_sup_r	arm_flex_l	arm_add_l	arm_rot_l	elbow_flex_l	pro_sup_l
      4.33333330	    -40.22437675	     -2.84415035	      3.28784294	      0.66074596	      0.61241588	     -0.03339002	    106.16531480	    -20.87805807	     -0.29649170	    101.77064164	      1.77623278	     38.70907854	     -7.94743708	     -7.49999987	    106.88163574	    -15.43307136	      2.37760753	    100.85959103	      1.76033195	     37.43198006	     -5.52453677	     -7.49999987	    -26.76319014	      2.45269972	     12.31441041	     95.13866733	    -19.90737798	     78.38356750	    127.85799541	     52.40851926	     93.76161778	      5.77472944	     68.97964071	    110.75330857	     89.98664617
      4.35000000	    -40.22133858	     -2.72577302	      3.25370218	      0.66010271	      0.60599169	     -0.03261279	    107.02540853	    -20.87615439	      0.11891352	    102.55615472	      1.78994257	     38.65838535	     -7.87102728	     -7.49999987	    107.66583463	    -15.35619553	      2.50151107	    101.70139842	      1.77502426	     37.42076257	     -5.77050713	     -7.49999987	    -26.53573458	      2.44385774	     12.02057181	     95.28727526	    -18.56872500	     77.85162512	    127.98309245	     52.34251319	     94.24018235	      4.93271706	     68.59489774	    112.56867153	     89.00088234
      4.36666670	    -40.18080703	     -2.63956692	      3.19942114	      0.66029279	      0.60339518	     -0.03250394	    107.69105311	    -20.86700557	      0.42468165	    103.20566991	      1.80127875	     38.65151057	     -7.77871344	     -7.49999987	    108.30534141	    -15.30851421	      2.65753766	    102.41028965	      1.78739674	     37.43831459	     -5.90683560	     -7.49999987	    -26.33016004	      2.37096021	     11.95030263	     95.23911758	    -18.22651573	     77.46847519	    128.22531606	     52.53281193	     94.41535796	      4.80548753	     68.47421484	    113.08559831	     88.34531022
      4.38333330	    -40.05259185	     -2.59912004	      3.16038793	      0.66023944	      0.60616412	     -0.03237908	    107.88409630	    -20.85687119	      0.56093037	    103.48775691	      1.80620209	     38.58421055	     -7.76330988	     -7.49999987	    108.52457728	    -15.25632060	      2.79631822	    102.77278908	      1.79372355	     37.47492774	     -5.97529467	     -7.49999987	    -26.44059431	      2.30023058	     11.96137671	     95.29549319	    -18.40835964	     77.50941304	    128.14188631	     52.51957481	     94.39318259	      4.64867577	     68.48444498	    113.10419287	     88.35031547
      4.40000000	    -40.09659295	     -2.54000567	      3.03906871	      0.66767308	      0.61106444	     -0.02882294	    107.80888995	    -20.72432437	      0.59872150	    103.35717374	      1.80392299	     38.40457012	     -7.79169863	     -7.49999987	    108.43389121	    -15.31222665	      2.83129956	    102.75912478	      1.79348506	     37.67023489	     -5.93015396	     -7.49999987	    -26.18704873	      2.18833563	     12.02294894	     94.59527482	    -17.97033665	     78.02198893	    127.46729084	     52.38848691	     93.42550862	      3.65140029	     69.24360670	    113.99392921	     88.41853124
      4.41666670	    -39.97206561	     -2.56278751	      2.96558689	      0.66716906	      0.61675696	     -0.02913507	    107.12051436	    -20.59978492	      0.45356790	    102.82693649	      1.79466860	     38.23535024	     -7.88248796	     -7.49999987	    107.84212288	    -15.36446824	      2.80603349	    102.40255295	      1.78726171	     37.76469750	     -5.84155153	     -7.49999987	    -26.31486735	      2.11678666	     11.89905311	     94.49651691	    -17.79169123	     77.38267571	    127.26417198	     53.08079034	     93.40728685	      3.37140694	     68.83205881	    113.71803950	     86.79832593
      4.43333330	    -40.05859892	     -2.63396993	      2.89690777	      0.65994572	      0.61588216	     -0.02611164	    106.65143333	    -20.44414916	      0.18278585	    102.20533141	      1.78381955	     38.04569957	     -7.86389779	     -7.49999987	    107.51109081	    -15.48426216	      2.75839918	    101.93681876	      1.77913312	     37.68766171	     -5.78986678	     -7.49999987	    -25.66450780	      1.97339347	     11.88512043	     95.14350300	    -17.26252949	     76.87876414	    127.68256533	     53.03629814	     94.33427168	      3.71229393	     68.20077058	    114.03136675	     86.76243259
      4.45000000	    -39.65838347	     -2.73969934	      2.83496349	      0.67318035	      0.62788446	     -0.02693615	    105.19258346	    -20.29182853	     -0.29268274	    101.24860046	      1.76712144	     37.97706249	     -7.87981928	     -7.49999987	    106.27760081	    -15.53875825	      2.72132981	    101.12185819	      1.76490937	     37.88473379	     -5.60085282	     -7.49999987	    -25.74911501	      1.92004394	     11.89410204	     93.95961322	    -16.61595394	     77.63463505	    128.40782809	     53.31621033	     93.08805847	      3.64774563	     68.89268952	    114.60098781	     86.09949466
      4.46666670	    -39.46094378	     -2.78294337	      2.75838729	      0.67400868	      0.63817479	     -0.02693689	    103.70265946	    -20.13278049	     -0.76944425	     99.96063850	      1.74464226	     37.78942779	     -7.89752403	     -7.49999987	    104.91798186	    -15.56406804	      2.54252811	     99.95391738	      1.74452496	     38.04728194	     -5.37498644	     -7.49999987	    -25.64412161	      1.87543238	     11.94464993	     93.03887318	    -17.33490957	     77.86670454	    127.64731656	     53.33193076	     92.03266918	      3.83240838	     68.92552525	    114.40109543	     86.09412229
